<svg width="106.5" height="133.25" xmlns="http://www.w3.org/2000/svg" fill-rule="evenodd">

 <g>
  <title>Layer 1</title>
  <g id="svg_1">
   <path id="svg_2" fill="none" stroke-linecap="round" stroke-linejoin="round" stroke-width="0.85039" stroke="#000000" d="m99.05,104.04499c0,-1.822 -1.4785,-3.3 -3.3,-3.3c-1.8215,0 -3.3,1.478 -3.3,3.3c0,1.821 1.4785,3.3 3.3,3.3c1.8215,0 3.3,-1.479 3.3,-3.3z"/>
   <path id="svg_3" fill="none" stroke-linecap="round" stroke-linejoin="round" stroke-width="0.85039" stroke="#000000" d="m99.05,54.03099c0,-1.822 -1.4785,-3.3 -3.3,-3.3c-1.8215,0 -3.3,1.478 -3.3,3.3c0,1.821 1.4785,3.3 3.3,3.3c1.8215,0 3.3,-1.479 3.3,-3.3z"/>
   <path id="svg_4" fill="none" stroke-linecap="round" stroke-linejoin="round" stroke-width="0.85039" stroke="#000000" d="m9.05,130.24999c0,-0.883 -0.7168,-1.6 -1.6,-1.6c-0.8832,0 -1.6,0.717 -1.6,1.6c0,0.883 0.7168,1.6 1.6,1.6c0.8832,0 1.6,-0.717 1.6,-1.6z"/>
   <path id="svg_5" fill="none" stroke-linecap="round" stroke-linejoin="round" stroke-width="0.85039" stroke="#000000" d="m70.01,130.24999c0,-0.883 -0.7168,-1.6 -1.6,-1.6c-0.8832,0 -1.6,0.717 -1.6,1.6c0,0.883 0.7168,1.6 1.6,1.6c0.8832,0 1.6,-0.717 1.6,-1.6z"/>
   <path id="svg_6" fill="none" stroke-linecap="round" stroke-linejoin="round" stroke-width="0.85039" stroke="#000000" d="m83.62,54.09499c0,-2.139 -1.7361,-3.875 -3.875,-3.875c-2.1389,0 -3.875,1.736 -3.875,3.875c0,2.139 1.7361,3.875 3.875,3.875c2.1389,0 3.875,-1.736 3.875,-3.875z"/>
   <path id="svg_7" fill="none" stroke-linecap="round" stroke-linejoin="round" stroke-width="0.85039" stroke="#000000" d="m65.96,54.09499c0,-2.139 -1.7361,-3.875 -3.875,-3.875c-2.13888,0 -3.875,1.736 -3.875,3.875c0,2.139 1.73612,3.875 3.875,3.875c2.1389,0 3.875,-1.736 3.875,-3.875z"/>
   <path id="svg_8" fill="none" stroke-linecap="round" stroke-linejoin="round" stroke-width="0.85039" stroke="#000000" d="m48.3,54.09499c0,-2.139 -1.73612,-3.875 -3.875,-3.875c-2.1389,0 -3.875,1.736 -3.875,3.875c0,2.139 1.7361,3.875 3.875,3.875c2.13888,0 3.875,-1.736 3.875,-3.875z"/>
   <path id="svg_9" fill="none" stroke-linecap="round" stroke-linejoin="round" stroke-width="0.85039" stroke="#000000" d="m100.49,130.24999c0,-0.883 -0.7168,-1.6 -1.6,-1.6c-0.8832,0 -1.6,0.717 -1.6,1.6c0,0.883 0.7168,1.6 1.6,1.6c0.8832,0 1.6,-0.717 1.6,-1.6z"/>
   <path id="svg_10" fill="none" stroke-linecap="round" stroke-linejoin="round" stroke-width="0.85039" stroke="#000000" d="m39.53,130.24999c0,-0.883 -0.7168,-1.6 -1.6,-1.6c-0.8832,0 -1.6,0.717 -1.6,1.6c0,0.883 0.7168,1.6 1.6,1.6c0.8832,0 1.6,-0.717 1.6,-1.6z"/>
   <path id="svg_11" fill="none" stroke-linecap="round" stroke-linejoin="round" stroke-width="0.85039" stroke="#000000" d="m100.49,2.99999c0,-0.883 -0.7168,-1.6 -1.6,-1.6c-0.8832,0 -1.6,0.717 -1.6,1.6c0,0.883 0.7168,1.6 1.6,1.6c0.8832,0 1.6,-0.717 1.6,-1.6z"/>
   <path id="svg_12" fill="none" stroke-linecap="round" stroke-linejoin="round" stroke-width="0.85039" stroke="#000000" d="m70.01,2.99999c0,-0.883 -0.7168,-1.6 -1.6,-1.6c-0.8832,0 -1.6,0.717 -1.6,1.6c0,0.883 0.7168,1.6 1.6,1.6c0.8832,0 1.6,-0.717 1.6,-1.6z"/>
   <path id="svg_13" fill="none" stroke-linecap="round" stroke-linejoin="round" stroke-width="0.85039" stroke="#000000" d="m39.53,2.99999c0,-0.883 -0.7168,-1.6 -1.6,-1.6c-0.8832,0 -1.6,0.717 -1.6,1.6c0,0.883 0.7168,1.6 1.6,1.6c0.8832,0 1.6,-0.717 1.6,-1.6z"/>
   <path id="svg_14" fill="none" stroke-linecap="round" stroke-linejoin="round" stroke-width="0.85039" stroke="#000000" d="m9.05,2.99999c0,-0.883 -0.7168,-1.6 -1.6,-1.6c-0.8832,0 -1.6,0.717 -1.6,1.6c0,0.883 0.7168,1.6 1.6,1.6c0.8832,0 1.6,-0.717 1.6,-1.6z"/>
   <path id="svg_15" fill="none" stroke-linecap="round" stroke-linejoin="round" stroke-width="0.85039" stroke="#000000" d="m29.65,105.62499c0,-1.601 -1.2993,-2.9 -2.9,-2.9c-1.6007,0 -2.9,1.299 -2.9,2.9c0,1.6 1.2993,2.9 2.9,2.9c1.6007,0 2.9,-1.3 2.9,-2.9z"/>
   <path id="svg_16" fill="none" stroke-linecap="round" stroke-linejoin="round" stroke-width="0.85039" stroke="#000000" d="m29.65,79.12499c0,-1.601 -1.2993,-2.9 -2.9,-2.9c-1.6007,0 -2.9,1.299 -2.9,2.9c0,1.6 1.2993,2.9 2.9,2.9c1.6007,0 2.9,-1.3 2.9,-2.9z"/>
   <path id="svg_17" fill="none" stroke-linecap="round" stroke-linejoin="round" stroke-width="0.85039" stroke="#000000" d="m29.65,55.54499c0,-1.601 -1.2993,-2.9 -2.9,-2.9c-1.6007,0 -2.9,1.299 -2.9,2.9c0,1.6 1.2993,2.9 2.9,2.9c1.6007,0 2.9,-1.3 2.9,-2.9z"/>
   <path id="svg_18" fill="none" stroke-linecap="round" stroke-linejoin="round" stroke-width="0.85039" stroke="#000000" d="m83.615,29.02499c0,-2.139 -1.7361,-3.875 -3.875,-3.875c-2.1389,0 -3.875,1.736 -3.875,3.875c0,2.139 1.7361,3.875 3.875,3.875c2.1389,0 3.875,-1.736 3.875,-3.875z"/>
   <path id="svg_19" fill="none" stroke-linecap="round" stroke-linejoin="round" stroke-width="0.85039" stroke="#000000" d="m65.955,29.02499c0,-2.139 -1.7361,-3.875 -3.875,-3.875c-2.13888,0 -3.875,1.736 -3.875,3.875c0,2.139 1.73612,3.875 3.875,3.875c2.1389,0 3.875,-1.736 3.875,-3.875z"/>
   <path id="svg_20" fill="none" stroke-linecap="round" stroke-linejoin="round" stroke-width="0.85039" stroke="#000000" d="m48.295,29.02499c0,-2.139 -1.73612,-3.875 -3.875,-3.875c-2.1389,0 -3.875,1.736 -3.875,3.875c0,2.139 1.7361,3.875 3.875,3.875c2.13888,0 3.875,-1.736 3.875,-3.875z"/>
   <path id="svg_21" fill="none" stroke-linecap="round" stroke-linejoin="round" stroke-width="0.85039" stroke="#000000" d="m30.635,29.02499c0,-2.139 -1.7361,-3.875 -3.875,-3.875c-2.1389,0 -3.875,1.736 -3.875,3.875c0,2.139 1.7361,3.875 3.875,3.875c2.1389,0 3.875,-1.736 3.875,-3.875z"/>
   <path id="svg_22" fill="none" stroke-linecap="round" stroke-linejoin="round" stroke-width="0.85039" stroke="#000000" d="m83.62,78.92499c0,-2.139 -1.7361,-3.875 -3.875,-3.875c-2.1389,0 -3.875,1.736 -3.875,3.875c0,2.139 1.7361,3.875 3.875,3.875c2.1389,0 3.875,-1.736 3.875,-3.875z"/>
   <path id="svg_23" fill="none" stroke-linecap="round" stroke-linejoin="round" stroke-width="0.85039" stroke="#000000" d="m83.62,104.12499c0,-2.139 -1.7361,-3.875 -3.875,-3.875c-2.1389,0 -3.875,1.736 -3.875,3.875c0,2.139 1.7361,3.875 3.875,3.875c2.1389,0 3.875,-1.736 3.875,-3.875z"/>
   <path id="svg_24" fill="none" stroke-linecap="round" stroke-linejoin="round" stroke-width="0.85039" stroke="#000000" d="m65.96,78.92499c0,-2.139 -1.7361,-3.875 -3.875,-3.875c-2.13888,0 -3.875,1.736 -3.875,3.875c0,2.139 1.73612,3.875 3.875,3.875c2.1389,0 3.875,-1.736 3.875,-3.875z"/>
   <path id="svg_25" fill="none" stroke-linecap="round" stroke-linejoin="round" stroke-width="0.85039" stroke="#000000" d="m65.96,104.12499c0,-2.139 -1.7361,-3.875 -3.875,-3.875c-2.13888,0 -3.875,1.736 -3.875,3.875c0,2.139 1.73612,3.875 3.875,3.875c2.1389,0 3.875,-1.736 3.875,-3.875z"/>
   <path id="svg_26" fill="none" stroke-linecap="round" stroke-linejoin="round" stroke-width="0.85039" stroke="#000000" d="m48.3,78.92499c0,-2.139 -1.73612,-3.875 -3.875,-3.875c-2.1389,0 -3.875,1.736 -3.875,3.875c0,2.139 1.7361,3.875 3.875,3.875c2.13888,0 3.875,-1.736 3.875,-3.875z"/>
   <path id="svg_27" fill="none" stroke-linecap="round" stroke-linejoin="round" stroke-width="0.85039" stroke="#000000" d="m48.3,104.12499c0,-2.139 -1.73612,-3.875 -3.875,-3.875c-2.1389,0 -3.875,1.736 -3.875,3.875c0,2.139 1.7361,3.875 3.875,3.875c2.13888,0 3.875,-1.736 3.875,-3.875z"/>
   <path id="svg_28" fill="none" stroke-linecap="round" stroke-linejoin="round" stroke-width="0.85039" stroke="#000000" d="m99.05,29.02399c0,-1.822 -1.4785,-3.3 -3.3,-3.3c-1.8215,0 -3.3,1.478 -3.3,3.3c0,1.821 1.4785,3.3 3.3,3.3c1.8215,0 3.3,-1.479 3.3,-3.3z"/>
   <path id="svg_29" fill="none" stroke-linecap="round" stroke-linejoin="round" stroke-width="0.85039" stroke="#000000" d="m99.05,79.03799c0,-1.822 -1.4785,-3.3 -3.3,-3.3c-1.8215,0 -3.3,1.478 -3.3,3.3c0,1.821 1.4785,3.3 3.3,3.3c1.8215,0 3.3,-1.479 3.3,-3.3z"/>
   <path id="svg_30" fill="none" stroke-linecap="round" stroke-linejoin="round" stroke-width="0.85039" stroke="#000000" d="m14.05,29.02399c0,-1.822 -1.4785,-3.3 -3.3,-3.3c-1.8215,0 -3.3,1.478 -3.3,3.3c0,1.821 1.4785,3.3 3.3,3.3c1.8215,0 3.3,-1.479 3.3,-3.3z"/>
   <path id="svg_31" fill="none" stroke-linecap="round" stroke-linejoin="round" stroke-width="0.85039" stroke="#000000" d="m14.05,54.03099c0,-1.822 -1.4785,-3.3 -3.3,-3.3c-1.8215,0 -3.3,1.478 -3.3,3.3c0,1.821 1.4785,3.3 3.3,3.3c1.8215,0 3.3,-1.479 3.3,-3.3z"/>
   <path id="svg_32" fill="none" stroke-linecap="round" stroke-linejoin="round" stroke-width="0.85039" stroke="#000000" d="m14.05,79.03799c0,-1.822 -1.4785,-3.3 -3.3,-3.3c-1.8215,0 -3.3,1.478 -3.3,3.3c0,1.821 1.4785,3.3 3.3,3.3c1.8215,0 3.3,-1.479 3.3,-3.3z"/>
   <path id="svg_33" fill="none" stroke-linecap="round" stroke-linejoin="round" stroke-width="0.85039" stroke="#000000" d="m14.05,104.04499c0,-1.822 -1.4785,-3.3 -3.3,-3.3c-1.8215,0 -3.3,1.478 -3.3,3.3c0,1.821 1.4785,3.3 3.3,3.3c1.8215,0 3.3,-1.479 3.3,-3.3z"/>
   <path id="svg_34" fill="none" stroke-linecap="round" stroke-linejoin="round" stroke-width="0.85039" stroke="#000000" d="m0,-0.00001l106.5,0"/>
   <path id="svg_35" fill="none" stroke-linecap="round" stroke-linejoin="round" stroke-width="0.85039" stroke="#000000" d="m0,-0.00001l0,133.25"/>
   <path id="svg_36" fill="none" stroke-linecap="round" stroke-linejoin="round" stroke-width="0.85039" stroke="#000000" d="m0,133.24999l106.5,0"/>
   <path id="svg_37" fill="none" stroke-linecap="round" stroke-linejoin="round" stroke-width="0.85039" stroke="#000000" d="m106.5,-0.00001l0,133.25"/>
  </g>
 </g>
</svg>